:SAMPLES-PER-SECOND 30
:FULLY-SPECIFIED
:DEGREES
369
root  0.537987 31.8523 5.72936 102.128 -82.8612 -102.428
RightUpLeg  -36.9071 -27.4484 -24.635
RightLeg  53.5086 4.2885 5.81808
RightFoot  24.6739 -7.54905 23.4878
RightToes  -6.40286e-010 0 -3.6325e-017
Spine  25.329 -0.303485 -5.53269
Spine1  -10.5384 0.190274 -14.3576
HEad  -19.8387 4.857 18.6065
LeftShoulder1  0.321242 1.85379 -12.3
LeftArm  -41.9862 -2.88222 -31.2396
LeftForeArm  -64.8678 -33.8856 -9.84518
LeftHand  0.282553 6.80228 23.4303
RightShoulder  0.475652 -0.990111 11.9298
RightArm  9.45058 -34.3944 11.9371
RightForeArm  53.5958 63.4175 17.117
RightHand  -1.33103 -1.62851 -39.8059
LeftUpLeg  -22.6312 19.8882 42.1551
LeftLeg  53.4635 -3.03201 -3.91708
LeftFoot  -11.1654 0.133899 -38.6769
LeftToes  -2.09187e-010 -4.93792e-011 -8.21189e-011
370
root  0.381769 32.5139 4.54926 115.132 -79.8617 -114.886
RightUpLeg  -39.7267 -29.3064 -17.8341
RightLeg  54.0632 4.48545 6.23846
RightFoot  27.1544 -7.03152 20.5058
RightToes  -6.40286e-010 0 -3.6325e-017
Spine  24.2902 -1.41574 -8.80195
Spine1  -10.5056 -1.70106 -9.31072
HEad  -18.1341 11.1411 19.8022
LeftShoulder1  0.126329 2.77234 -9.88432
LeftArm  -48.0837 -4.11475 -26.439
LeftForeArm  -66.2019 -32.1827 -9.36163
LeftHand  0.270243 6.79511 22.6568
RightShoulder  0.430486 -1.2034 11.71
RightArm  10.5904 -35.9187 13.512
RightForeArm  53.7415 63.2504 16.9577
RightHand  -1.30513 -1.65352 -39.3306
LeftUpLeg  -18.3602 17.7327 46.38
LeftLeg  47.0462 -0.810365 -0.51935
LeftFoot  -4.91158 2.54875 -42.803
LeftToes  -2.09187e-010 -4.93792e-011 -8.21189e-011
371
root  0.150585 33.2953 3.28898 121.119 -76.7609 -120.488
RightUpLeg  -40.3957 -29.8884 -11.9052
RightLeg  53.2301 5.46608 7.42009
RightFoot  28.3828 -6.96629 19.6884
RightToes  -6.40286e-010 0 -3.6325e-017
Spine  23.2264 -2.63704 -11.406
Spine1  -10.3041 -3.53017 -4.54265
HEad  -15.9473 16.9586 20.7799
LeftShoulder1  -0.0573858 3.89018 -7.3419
LeftArm  -52.1906 -3.72148 -21.5127
LeftForeArm  -66.417 -30.284 -8.83871
LeftHand  0.285877 6.90373 22.2648
RightShoulder  0.36971 -1.48394 11.268
RightArm  11.1463 -37.7994 15.1556
RightForeArm  52.7662 63.0642 16.8998
RightHand  -1.30164 -1.64122 -39.1117
LeftUpLeg  -13.3159 14.6678 50.1633
LeftLeg  39.3786 3.13223 3.10057
LeftFoot  2.81551 5.9361 -45.5424
LeftToes  -2.09187e-010 -4.93792e-011 -8.21189e-011
372
root  -0.164676 34.0533 1.97621 125.194 -74.2595 -124.609
RightUpLeg  -38.7901 -29.3778 -8.11082
RightLeg  51.788 7.94115 10.3155
RightFoot  27.2039 -6.96204 20.304
RightToes  -6.40286e-010 0 -3.6325e-017
Spine  22.4993 -3.91331 -13.6443
Spine1  -10.5585 -5.30889 -0.948446
HEad  -12.9661 21.9813 21.8606
LeftShoulder1  -0.202952 5.15164 -4.39437
LeftArm  -54.3779 -2.07478 -17.455
LeftForeArm  -64.1865 -28.7294 -8.41181
LeftHand  0.30554 6.9783 22.6105
RightShoulder  0.274728 -1.95784 10.7229
RightArm  11.0897 -39.9246 16.8576
RightForeArm  51.0688 62.6394 16.7196
RightHand  -1.31275 -1.63426 -39.3541
LeftUpLeg  -7.4418 10.7343 52.7258
LeftLeg  30.9263 9.77613 6.55181
LeftFoot  11.7261 9.73451 -45.7825
LeftToes  -2.09187e-010 -4.93792e-011 -8.21189e-011
373
root  -0.527695 34.6824 0.69019 129.008 -72.7041 -128.445
RightUpLeg  -36.393 -28.8429 -5.92478
RightLeg  50.5291 10.8009 13.414
RightFoot  23.4965 -6.403 20.7418
RightToes  -6.40286e-010 0 -3.6325e-017
Spine  22.0813 -5.16337 -16.0811
Spine1  -11.8643 -7.11109 2.38564
HEad  -8.98604 26.3101 22.8908
LeftShoulder1  -0.273027 6.37684 -1.15238
LeftArm  -55.2487 0.68524 -14.9133
LeftForeArm  -59.3785 -28.0012 -8.17576
LeftHand  0.303612 6.88197 23.7773
RightShoulder  0.166046 -2.53345 10.1099
RightArm  10.2243 -42.0723 18.1718
RightForeArm  48.605 61.9894 16.4413
RightHand  -1.31018 -1.66423 -39.5774
LeftUpLeg  -1.69133 6.88276 53.5794
LeftLeg  22.4675 19.0516 8.59243
LeftFoot  21.4668 12.6895 -41.9784
LeftToes  -2.09187e-010 -4.93792e-011 -8.21189e-011
374
root  -0.873148 35.1232 -0.45019 133.458 -72.0428 -132.444
RightUpLeg  -35.0624 -29.1646 -4.31749
RightLeg  49.9942 12.3264 14.9683
RightFoot  19.0655 -5.33844 19.9527
RightToes  -6.40286e-010 0 -3.6325e-017
Spine  21.8961 -6.3478 -18.6866
Spine1  -14.1353 -8.86218 6.30598
HEad  -4.6218 30.4923 23.3399
LeftShoulder1  -0.26571 7.36042 1.82557
LeftArm  -54.9882 4.17922 -13.5304
LeftForeArm  -52.6215 -28.0991 -8.09642
LeftHand  0.271413 6.60761 25.8146
RightShoulder  0.0626065 -3.11315 9.37392
RightArm  8.35137 -44.0877 19.0751
RightForeArm  44.6639 61.5312 16.4873
RightHand  -1.3114 -1.63557 -39.3304
LeftUpLeg  2.91349 7.65853 53.2029
LeftLeg  14.3306 24.6338 8.37616
LeftFoot  30.1213 13.4692 -35.1707
LeftToes  -2.09187e-010 -4.93792e-011 -8.21189e-011
375
root  -1.14403 35.3193 -1.35706 139.047 -71.9492 -137.469
RightUpLeg  -35.3164 -29.7913 -3.38639
RightLeg  50.7565 12.2841 15.3076
RightFoot  15.5225 -4.31316 18.3798
RightToes  -6.40286e-010 0 -3.6325e-017
Spine  21.9849 -7.31482 -20.912
Spine1  -16.4086 -10.2481 10.404
HEad  -1.19025 34.8633 22.6538
LeftShoulder1  -0.221786 8.07894 4.14516
LeftArm  -53.3937 7.82217 -12.6827
LeftForeArm  -44.3634 -28.5783 -8.03519
LeftHand  0.247845 6.36377 28.8565
RightShoulder  -0.0331075 -3.6905 8.68102
RightArm  5.09931 -45.5629 20.3658
RightForeArm  37.7973 61.0381 16.8305
RightHand  -1.37604 -1.40438 -38.8967
LeftUpLeg  6.15109 18.5614 52.7049
LeftLeg  7.32827 17.6834 7.99312
LeftFoot  35.2309 12.8789 -29.8887
LeftToes  -2.09187e-010 -4.93792e-011 -8.21189e-011
376
root  -1.33445 35.2521 -2.02424 144.636 -72.086 -143.096
RightUpLeg  -36.0442 -29.6735 -3.76857
RightLeg  52.8829 11.6888 15.7284
RightFoot  12.7634 -3.59533 17.1481
RightToes  -6.40286e-010 0 -3.6325e-017
Spine  22.2741 -7.81842 -22.285
Spine1  -17.5115 -11.0321 14.0147
HEad  0.271723 38.8925 20.4669
LeftShoulder1  -0.174472 8.43098 5.63933
LeftArm  -50.2715 11.0659 -11.9902
LeftForeArm  -34.9623 -28.6096 -7.76254
LeftHand  0.34335 6.54787 32.7827
RightShoulder  -0.113386 -4.20158 8.30638
RightArm  -0.144988 -46.1671 22.8188
RightForeArm  26.6826 59.7663 17.0306
RightHand  -1.46213 -1.11864 -38.5789
LeftUpLeg  8.25572 22.846 52.5101
LeftLeg  5.00124 13.9849 7.52877
LeftFoot  36.6976 12.6838 -28.5453
LeftToes  -2.09187e-010 -4.93792e-011 -8.21189e-011
377
root  -1.48665 34.9729 -2.46262 148.502 -72.4289 -147.647
RightUpLeg  -36.1505 -28.9066 -5.3902
RightLeg  55.6293 11.326 16.8457
RightFoot  9.76268 -3.11551 16.9869
RightToes  -6.40286e-010 0 -3.6325e-017
Spine  22.478 -7.79793 -22.585
Spine1  -17.1252 -11.2431 17.2885
HEad  -0.0918973 41.5101 16.8303
LeftShoulder1  -0.139571 8.05346 6.16155
LeftArm  -45.2271 13.5188 -11.2596
LeftForeArm  -24.3654 -27.5214 -7.09217
LeftHand  0.614031 7.19625 37.2766
RightShoulder  -0.171843 -4.57735 8.20516
RightArm  -7.13979 -45.9318 26.207
RightForeArm  12.1437 57.3468 16.7254
RightHand  -1.46871 -1.02125 -37.932
LeftUpLeg  9.16338 21.4298 52.0165
LeftLeg  5.82892 14.7387 7.47498
LeftFoot  36.2689 13.2903 -30.1337
LeftToes  -2.09187e-010 -4.93792e-011 -8.21189e-011
378
root  -1.64472 34.5845 -2.66452 150.312 -73.1963 -150.198
RightUpLeg  -35.5504 -28.2678 -7.53987
RightLeg  58.0415 11.16 18.1593
RightFoot  5.7317 -2.65296 17.8254
RightToes  -6.40286e-010 0 -3.6325e-017
Spine  22.3368 -7.47693 -21.7607
Spine1  -15.9179 -11.0781 20.6453
HEad  -1.2122 42.2848 12.2784
LeftShoulder1  -0.11587 6.87184 5.69981
LeftArm  -37.6776 14.9882 -10.4502
LeftForeArm  -11.7783 -25.5444 -6.05287
LeftHand  1.02409 8.01331 42.3106
RightShoulder  -0.217729 -4.87051 8.17976
RightArm  -14.2196 -44.8857 29.4957
RightForeArm  -2.69781 53.6666 15.6397
RightHand  -1.38126 -1.0864 -36.3092
LeftUpLeg  8.65379 16.9719 51.2508
LeftLeg  8.79734 18.8725 7.61307
LeftFoot  34.6284 13.9189 -32.6554
LeftToes  -2.09187e-010 -4.93792e-011 -8.21189e-011
379
root  -1.81872 34.1739 -2.6468 150.617 -74.5305 -150.956
RightUpLeg  -34.4492 -27.9405 -9.79636
RightLeg  59.57 10.8544 18.7534
RightFoot  0.783029 -2.03958 19.1038
RightToes  -6.40286e-010 0 -3.6325e-017
Spine  21.8745 -7.0971 -19.9646
Spine1  -14.6271 -10.7371 23.9425
HEad  -2.40096 41.8035 7.25221
LeftShoulder1  -0.0904531 5.53893 4.58137
LeftArm  -27.7743 15.4695 -9.72229
LeftForeArm  2.63853 -23.512 -4.91576
LeftHand  1.59536 8.9907 47.4012
RightShoulder  -0.255904 -5.10589 8.25308
RightArm  -19.882 -42.9182 31.9059
RightForeArm  -15.5744 48.8036 13.9075
RightHand  -1.19856 -1.34047 -33.5988
LeftUpLeg  6.80592 11.9725 50.5265
LeftLeg  13.5271 23.5225 7.77675
LeftFoot  31.3743 13.9503 -35.2873
LeftToes  -2.09187e-010 -4.93792e-011 -8.21189e-011
